# xmcd
#
# Track frame offsets: 
#        150
#        30309
#        44300
#        58812
#        72245
#        84817
#        98870
#        113226
#        130192
#        161070
#        176682
#        187839
#        211858
#        215049
#        237359
#        250584
#        263727
#        271849
#        281762
#        300830
#
# Disc length: 4217 seconds
#
# Revision: 3
# Processed by: cddbd v1.5.2PL0 Copyright (c) Steve Scherf et al.
# Submitted via: ExactAudioCopy v0.99pb5
#
DISCID=10107714
DTITLE=Son House - Delta Blues
DYEAR=2004
DGENRE=Blues
TTITLE0=Walkin' Blues
TTITLE1=My Black Mama - Part 1
TTITLE2=My Black Mama - Part 2
TTITLE3=Preachin' The Blues - Part 1
TTITLE4=Preachin' The Blues - Part 2
TTITLE5=Dry Spell Blues - Part 1
TTITLE6=Dry Spell Blues - Part 2
TTITLE7=Levee Camp Blues
TTITLE8=Government Camp Blues
TTITLE9=Shetland Pony Blues
TTITLE10=Camp Hollers
TTITLE11=Delta Blues
TTITLE12=Special Rider Blues
TTITLE13=Low Down Dirty Dog Blues
TTITLE14=Depot Blues
TTITLE15=American Defense
TTITLE16=Am I Right Or Wrong
TTITLE17=County Farm Blues
TTITLE18=The Pony Blues
TTITLE19=The Jinx Blues
EXTD=
EXTT0=
EXTT1=
EXTT2=
EXTT3=
EXTT4=
EXTT5=
EXTT6=
EXTT7=
EXTT8=
EXTT9=
EXTT10=
EXTT11=
EXTT12=
EXTT13=
EXTT14=
EXTT15=
EXTT16=
EXTT17=
EXTT18=
EXTT19=
PLAYORDER=
